<svg width="706" height="577" viewBox="0 0 706 577" fill="none" xmlns="http://www.w3.org/2000/svg">
<g clip-path="url(#clip0)" filter="url(#filter0_d)">
<g opacity="0.5">
<path opacity="0.5" d="M377.462 15.6816H7.64385C5.63141 15.6816 4 17.3119 4 19.3229V359.724C4 361.735 5.63141 363.366 7.64385 363.366H377.462C379.475 363.366 381.106 361.735 381.106 359.724V19.3229C381.106 17.3119 379.475 15.6816 377.462 15.6816Z" fill="url(#paint0_linear)"/>
</g>
<path d="M373.365 18.3762H12.2432C10.2308 18.3762 8.59937 20.0065 8.59937 22.0175V353.987C8.59937 355.998 10.2308 357.629 12.2432 357.629H373.365C375.378 357.629 377.009 355.998 377.009 353.987V22.0175C377.009 20.0065 375.378 18.3762 373.365 18.3762Z" fill="#F5F5F5"/>
<path d="M95.4849 74.2576H40.6409C38.6285 74.2576 36.9971 75.8878 36.9971 77.8988V126.498C36.9971 128.509 38.6285 130.139 40.6409 130.139H95.4849C97.4974 130.139 99.1288 128.509 99.1288 126.498V77.8988C99.1288 75.8878 97.4974 74.2576 95.4849 74.2576Z" fill="#0394D3"/>
<path d="M361.964 74.2576H120.547C119.008 74.2576 117.761 75.5038 117.761 77.0411V77.6804C117.761 79.2177 119.008 80.4639 120.547 80.4639H361.964C363.502 80.4639 364.749 79.2177 364.749 77.6804V77.0411C364.749 75.5038 363.502 74.2576 361.964 74.2576Z" fill="#E0E0E0"/>
<path d="M361.964 92.8845H120.547C119.008 92.8845 117.761 94.1308 117.761 95.6681V96.3073C117.761 97.8446 119.008 99.0909 120.547 99.0909H361.964C363.502 99.0909 364.749 97.8446 364.749 96.3073V95.6681C364.749 94.1308 363.502 92.8845 361.964 92.8845Z" fill="#E0E0E0"/>
<path d="M361.964 160.491H33.5638C32.0254 160.491 30.7783 161.737 30.7783 163.274V163.914C30.7783 165.451 32.0254 166.697 33.5638 166.697H361.964C363.502 166.697 364.749 165.451 364.749 163.914V163.274C364.749 161.737 363.502 160.491 361.964 160.491Z" fill="#E0E0E0"/>
<path d="M361.964 179.11H33.5638C32.0254 179.11 30.7783 180.356 30.7783 181.893V182.532C30.7783 184.07 32.0254 185.316 33.5638 185.316H361.964C363.502 185.316 364.749 184.07 364.749 182.532V181.893C364.749 180.356 363.502 179.11 361.964 179.11Z" fill="#E0E0E0"/>
<path d="M361.964 203.951H33.5638C32.0254 203.951 30.7783 205.197 30.7783 206.735V207.374C30.7783 208.911 32.0254 210.158 33.5638 210.158H361.964C363.502 210.158 364.749 208.911 364.749 207.374V206.735C364.749 205.197 363.502 203.951 361.964 203.951Z" fill="#E0E0E0"/>
<path d="M220.599 222.57H33.5638C32.0254 222.57 30.7783 223.817 30.7783 225.354V225.993C30.7783 227.53 32.0254 228.777 33.5638 228.777H220.599C222.137 228.777 223.384 227.53 223.384 225.993V225.354C223.384 223.817 222.137 222.57 220.599 222.57Z" fill="#E0E0E0"/>
<path d="M361.964 247.347H33.5638C32.0254 247.347 30.7783 248.593 30.7783 250.13V250.77C30.7783 252.307 32.0254 253.553 33.5638 253.553H361.964C363.502 253.553 364.749 252.307 364.749 250.77V250.13C364.749 248.593 363.502 247.347 361.964 247.347Z" fill="#E0E0E0"/>
<path d="M361.964 265.974H33.5638C32.0254 265.974 30.7783 267.22 30.7783 268.758V269.397C30.7783 270.934 32.0254 272.18 33.5638 272.18H361.964C363.502 272.18 364.749 270.934 364.749 269.397V268.758C364.749 267.22 363.502 265.974 361.964 265.974Z" fill="#E0E0E0"/>
<path d="M361.964 290.807H33.5638C32.0254 290.807 30.7783 292.054 30.7783 293.591V294.23C30.7783 295.767 32.0254 297.014 33.5638 297.014H361.964C363.502 297.014 364.749 295.767 364.749 294.23V293.591C364.749 292.054 363.502 290.807 361.964 290.807Z" fill="#E0E0E0"/>
<path d="M220.599 309.435H33.5638C32.0254 309.435 30.7783 310.681 30.7783 312.218V312.857C30.7783 314.395 32.0254 315.641 33.5638 315.641H220.599C222.137 315.641 223.384 314.395 223.384 312.857V312.218C223.384 310.681 222.137 309.435 220.599 309.435Z" fill="#E0E0E0"/>
<g opacity="0.5">
<path opacity="0.5" d="M434.379 96.0242H64.5608C62.5484 96.0242 60.917 97.6544 60.917 99.6654V440.067C60.917 442.078 62.5484 443.708 64.5608 443.708H434.379C436.392 443.708 438.023 442.078 438.023 440.067V99.6654C438.023 97.6544 436.392 96.0242 434.379 96.0242Z" fill="url(#paint1_linear)"/>
</g>
<path d="M430.282 98.7188H69.1601C67.1477 98.7188 65.5163 100.349 65.5163 102.36V434.33C65.5163 436.341 67.1477 437.971 69.1601 437.971H430.282C432.294 437.971 433.926 436.341 433.926 434.33V102.36C433.926 100.349 432.294 98.7188 430.282 98.7188Z" fill="white"/>
<path d="M152.394 154.6H97.5498C95.5374 154.6 93.9059 156.23 93.9059 158.241V206.84C93.9059 208.851 95.5374 210.481 97.5498 210.481H152.394C154.406 210.481 156.038 208.851 156.038 206.84V158.241C156.038 156.23 154.406 154.6 152.394 154.6Z" fill="#0394D3"/>
<path d="M418.881 154.6H177.464C175.925 154.6 174.678 155.846 174.678 157.383V158.023C174.678 159.56 175.925 160.806 177.464 160.806H418.881C420.419 160.806 421.666 159.56 421.666 158.023V157.383C421.666 155.846 420.419 154.6 418.881 154.6Z" fill="#E0E0E0"/>
<path d="M418.881 173.227H177.464C175.925 173.227 174.678 174.473 174.678 176.011V176.65C174.678 178.187 175.925 179.433 177.464 179.433H418.881C420.419 179.433 421.666 178.187 421.666 176.65V176.011C421.666 174.473 420.419 173.227 418.881 173.227Z" fill="#E0E0E0"/>
<path d="M418.881 240.833H90.4808C88.9424 240.833 87.6953 242.079 87.6953 243.617V244.256C87.6953 245.793 88.9424 247.04 90.4808 247.04H418.881C420.419 247.04 421.666 245.793 421.666 244.256V243.617C421.666 242.079 420.419 240.833 418.881 240.833Z" fill="#E0E0E0"/>
<path d="M418.881 259.46H90.4808C88.9424 259.46 87.6953 260.706 87.6953 262.244V262.883C87.6953 264.42 88.9424 265.667 90.4808 265.667H418.881C420.419 265.667 421.666 264.42 421.666 262.883V262.244C421.666 260.706 420.419 259.46 418.881 259.46Z" fill="#E0E0E0"/>
<path d="M418.881 284.294H90.4808C88.9424 284.294 87.6953 285.54 87.6953 287.077V287.716C87.6953 289.254 88.9424 290.5 90.4808 290.5H418.881C420.419 290.5 421.666 289.254 421.666 287.716V287.077C421.666 285.54 420.419 284.294 418.881 284.294Z" fill="#E0E0E0"/>
<path d="M277.516 302.921H90.4808C88.9424 302.921 87.6953 304.167 87.6953 305.704V306.343C87.6953 307.881 88.9424 309.127 90.4808 309.127H277.516C279.054 309.127 280.301 307.881 280.301 306.343V305.704C280.301 304.167 279.054 302.921 277.516 302.921Z" fill="#E0E0E0"/>
<path d="M418.881 327.689H90.4808C88.9424 327.689 87.6953 328.936 87.6953 330.473V331.112C87.6953 332.65 88.9424 333.896 90.4808 333.896H418.881C420.419 333.896 421.666 332.65 421.666 331.112V330.473C421.666 328.936 420.419 327.689 418.881 327.689Z" fill="#E0E0E0"/>
<path d="M418.881 346.316H90.4808C88.9424 346.316 87.6953 347.563 87.6953 349.1V349.739C87.6953 351.277 88.9424 352.523 90.4808 352.523H418.881C420.419 352.523 421.666 351.277 421.666 349.739V349.1C421.666 347.563 420.419 346.316 418.881 346.316Z" fill="#E0E0E0"/>
<path d="M418.881 371.15H90.4808C88.9424 371.15 87.6953 372.396 87.6953 373.933V374.573C87.6953 376.11 88.9424 377.356 90.4808 377.356H418.881C420.419 377.356 421.666 376.11 421.666 374.573V373.933C421.666 372.396 420.419 371.15 418.881 371.15Z" fill="#E0E0E0"/>
<path d="M277.516 389.777H90.4808C88.9424 389.777 87.6953 391.023 87.6953 392.561V393.2C87.6953 394.737 88.9424 395.983 90.4808 395.983H277.516C279.054 395.983 280.301 394.737 280.301 393.2V392.561C280.301 391.023 279.054 389.777 277.516 389.777Z" fill="#E0E0E0"/>
<path d="M438.023 223.929L441.554 220.596" stroke="#535461" stroke-miterlimit="10"/>
<path d="M448.955 213.597L578.473 91.1206" stroke="#535461" stroke-miterlimit="10" stroke-dasharray="12.58 12.58"/>
<path d="M582.174 87.617L585.696 84.2832" stroke="#535461" stroke-miterlimit="10"/>
<path d="M439.343 346.316L442.963 349.561" stroke="#535461" stroke-miterlimit="10"/>
<path d="M450.461 356.285L581.664 473.987" stroke="#535461" stroke-miterlimit="10" stroke-dasharray="12.44 12.44"/>
<path d="M585.413 477.354L589.024 480.59" stroke="#535461" stroke-miterlimit="10"/>
<g opacity="0.5">
<path opacity="0.5" d="M595.357 569.008C653.176 569.008 700.049 522.169 700.049 464.39C700.049 406.612 653.176 359.773 595.357 359.773C537.537 359.773 490.665 406.612 490.665 464.39C490.665 522.169 537.537 569.008 595.357 569.008Z" fill="url(#paint2_linear)"/>
</g>
<path d="M595.357 566.225C651.956 566.225 697.838 520.375 697.838 463.816C697.838 407.257 651.956 361.407 595.357 361.407C538.758 361.407 492.875 407.257 492.875 463.816C492.875 520.375 538.758 566.225 595.357 566.225Z" fill="#01589F"/>
<path d="M652.039 473.041C652.039 510.756 627.406 552.744 597.033 552.744C566.659 552.744 542.027 510.748 542.027 473.041C542.027 435.333 566.659 416.18 597.033 416.18C627.406 416.18 652.039 435.317 652.039 473.041Z" fill="#6C6C6A"/>
<path d="M595.648 566.532C615.674 566.563 635.265 560.704 651.982 549.685C648.209 529.059 633.836 527.886 633.836 527.886H554.626C554.626 527.886 541.063 529.003 536.812 547.97C554.037 560.077 574.589 566.561 595.648 566.532Z" fill="#D0CDE1"/>
<path opacity="0.1" d="M578.603 502.729H610.296V529.707C610.296 533.471 608.8 537.081 606.136 539.743C603.473 542.404 599.86 543.9 596.093 543.9H592.806C589.039 543.9 585.427 542.404 582.763 539.743C580.099 537.081 578.603 533.471 578.603 529.707V502.729Z" fill="black"/>
<path d="M581.348 501.556H607.624C608.344 501.556 609.034 501.841 609.542 502.35C610.051 502.858 610.337 503.547 610.337 504.266V528.541C610.337 532.306 608.841 535.916 606.177 538.577C603.513 541.239 599.901 542.734 596.134 542.734H592.846C589.08 542.734 585.467 541.239 582.803 538.577C580.14 535.916 578.643 532.306 578.643 528.541V504.266C578.643 503.549 578.928 502.861 579.435 502.352C579.942 501.844 580.63 501.558 581.348 501.556Z" fill="#FFB8B8"/>
<path opacity="0.1" d="M578.66 514.697C588.874 518.511 600.118 518.543 610.353 514.786V510.894H578.66V514.697Z" fill="black"/>
<path d="M594.571 516.809C619.66 516.809 639.998 496.485 639.998 471.414C639.998 446.344 619.66 426.02 594.571 426.02C569.483 426.02 549.144 446.344 549.144 471.414C549.144 496.485 569.483 516.809 594.571 516.809Z" fill="#FFB8B8"/>
<path d="M550.076 477.402C552.41 477.402 554.303 473.855 554.303 469.48C554.303 465.105 552.41 461.559 550.076 461.559C547.741 461.559 545.849 465.105 545.849 469.48C545.849 473.855 547.741 477.402 550.076 477.402Z" fill="#FFB8B8"/>
<path d="M638.824 477.402C641.158 477.402 643.051 473.855 643.051 469.48C643.051 465.105 641.158 461.559 638.824 461.559C636.489 461.559 634.597 465.105 634.597 469.48C634.597 473.855 636.489 477.402 638.824 477.402Z" fill="#FFB8B8"/>
<path opacity="0.1" d="M554.311 446.791C554.311 446.791 580.028 481.942 638.897 469.925C638.897 469.925 645.472 461.931 629.463 437.372C613.454 412.814 568.886 416.811 554.311 446.791Z" fill="black"/>
<path d="M554.311 446.225C554.311 446.225 580.028 481.351 638.897 469.359C638.897 469.359 645.472 461.364 629.463 436.806C613.454 412.248 568.886 416.237 554.311 446.225Z" fill="#6C6C6A"/>
<g opacity="0.5">
<path opacity="0.5" d="M597.308 209.235C655.128 209.235 702 162.396 702 104.618C702 46.8389 655.128 0 597.308 0C539.488 0 492.616 46.8389 492.616 104.618C492.616 162.396 539.488 209.235 597.308 209.235Z" fill="url(#paint3_linear)"/>
</g>
<path d="M597.519 206.354C654.117 206.354 700 160.505 700 103.946C700 47.3872 654.117 1.53735 597.519 1.53735C540.92 1.53735 495.037 47.3872 495.037 103.946C495.037 160.505 540.92 206.354 597.519 206.354Z" fill="#0394D3"/>
<path d="M597.6 206.759C617.625 206.79 637.217 200.931 653.934 189.912C650.16 169.286 635.787 168.113 635.787 168.113H556.546C556.546 168.113 542.982 169.23 538.731 188.197C555.965 200.31 576.529 206.794 597.6 206.759Z" fill="#D0CDE1"/>
<path d="M596.523 151.218C623.843 151.218 645.99 129.086 645.99 101.785C645.99 74.4848 623.843 52.3533 596.523 52.3533C569.203 52.3533 547.055 74.4848 547.055 101.785C547.055 129.086 569.203 151.218 596.523 151.218Z" fill="#333333"/>
<path opacity="0.1" d="M580.538 142.956H612.232V169.926C612.232 173.69 610.735 177.3 608.072 179.962C605.408 182.623 601.796 184.119 598.029 184.119H594.741C590.974 184.119 587.362 182.623 584.698 179.962C582.035 177.3 580.538 173.69 580.538 169.926V142.956Z" fill="black"/>
<path d="M583.267 141.783H609.543C610.263 141.783 610.953 142.068 611.461 142.577C611.97 143.085 612.256 143.775 612.256 144.493V168.769C612.256 172.533 610.76 176.143 608.096 178.804C605.432 181.466 601.82 182.961 598.053 182.961H594.765C592.898 182.965 591.049 182.6 589.323 181.888C587.597 181.176 586.028 180.131 584.707 178.813C583.385 177.495 582.337 175.929 581.622 174.206C580.906 172.482 580.538 170.634 580.538 168.769V144.493C580.538 144.136 580.609 143.782 580.746 143.452C580.884 143.122 581.085 142.823 581.339 142.571C581.592 142.319 581.893 142.12 582.224 141.984C582.555 141.849 582.91 141.781 583.267 141.783Z" fill="#FFB8B8"/>
<path opacity="0.1" d="M580.619 154.924C590.833 158.738 602.077 158.77 612.313 155.013V151.121H580.619V154.924Z" fill="black"/>
<path d="M596.523 157.035C621.611 157.035 641.949 136.712 641.949 111.641C641.949 86.5704 621.611 66.2466 596.523 66.2466C571.434 66.2466 551.096 86.5704 551.096 111.641C551.096 136.712 571.434 157.035 596.523 157.035Z" fill="#FFB8B8"/>
<path opacity="0.1" d="M564.165 70.3493C564.165 70.3493 583.308 109.189 637.318 86.6298L624.742 66.9265L602.45 58.9319L564.165 70.3493Z" fill="black"/>
<path d="M564.165 69.7826C564.165 69.7826 583.308 108.623 637.318 86.0631L624.742 66.3518L602.45 58.3572L564.165 69.7826Z" fill="#333333"/>
<path d="M563.995 67.1531C565.278 63.161 567.499 59.5344 570.473 56.5772C579.38 47.7492 594.061 45.8881 601.575 35.822C601.984 36.534 602.239 37.3238 602.324 38.1404C602.409 38.957 602.321 39.7822 602.067 40.5629C601.813 41.3437 601.398 42.0625 600.849 42.6731C600.3 43.2837 599.629 43.7725 598.879 44.1079C606.07 44.0594 614.418 43.4282 618.491 37.5051C619.498 39.8451 619.819 42.4226 619.417 44.9379C619.016 47.4531 617.909 49.8029 616.224 51.7141C622.605 52.0054 629.415 56.3345 629.827 62.7026C630.103 66.9427 627.439 70.9643 623.949 73.3999C620.459 75.8355 616.24 76.9521 612.078 77.8665C599.972 80.5448 556.076 91.7518 563.995 67.1531Z" fill="#333333"/>
<path d="M551.072 119.522C553.406 119.522 555.299 115.976 555.299 111.601C555.299 107.226 553.406 103.679 551.072 103.679C548.737 103.679 546.845 107.226 546.845 111.601C546.845 115.976 548.737 119.522 551.072 119.522Z" fill="#FFB8B8"/>
<path d="M641.949 119.522C644.284 119.522 646.176 115.976 646.176 111.601C646.176 107.226 644.284 103.679 641.949 103.679C639.615 103.679 637.722 107.226 637.722 111.601C637.722 115.976 639.615 119.522 641.949 119.522Z" fill="#FFB8B8"/>
</g>
<defs>
<filter id="filter0_d" x="0" y="0" width="706" height="577" filterUnits="userSpaceOnUse" color-interpolation-filters="sRGB">
<feFlood flood-opacity="0" result="BackgroundImageFix"/>
<feColorMatrix in="SourceAlpha" type="matrix" values="0 0 0 0 0 0 0 0 0 0 0 0 0 0 0 0 0 0 127 0"/>
<feOffset dy="4"/>
<feGaussianBlur stdDeviation="2"/>
<feColorMatrix type="matrix" values="0 0 0 0 0 0 0 0 0 0 0 0 0 0 0 0 0 0 0.25 0"/>
<feBlend mode="normal" in2="BackgroundImageFix" result="effect1_dropShadow"/>
<feBlend mode="normal" in="SourceGraphic" in2="effect1_dropShadow" result="shape"/>
</filter>
<linearGradient id="paint0_linear" x1="192.557" y1="363.366" x2="192.557" y2="15.6816" gradientUnits="userSpaceOnUse">
<stop stop-color="#808080" stop-opacity="0.25"/>
<stop offset="0.54" stop-color="#808080" stop-opacity="0.12"/>
<stop offset="1" stop-color="#808080" stop-opacity="0.1"/>
</linearGradient>
<linearGradient id="paint1_linear" x1="114377" y1="190749" x2="114377" y2="41355.7" gradientUnits="userSpaceOnUse">
<stop stop-color="#808080" stop-opacity="0.25"/>
<stop offset="0.54" stop-color="#808080" stop-opacity="0.12"/>
<stop offset="1" stop-color="#808080" stop-opacity="0.1"/>
</linearGradient>
<linearGradient id="paint2_linear" x1="153404" y1="147492" x2="153404" y2="93389.9" gradientUnits="userSpaceOnUse">
<stop stop-color="#808080" stop-opacity="0.25"/>
<stop offset="0.54" stop-color="#808080" stop-opacity="0.12"/>
<stop offset="1" stop-color="#808080" stop-opacity="0.1"/>
</linearGradient>
<linearGradient id="paint3_linear" x1="153910" y1="54101.9" x2="153910" y2="0" gradientUnits="userSpaceOnUse">
<stop stop-color="#808080" stop-opacity="0.25"/>
<stop offset="0.54" stop-color="#808080" stop-opacity="0.12"/>
<stop offset="1" stop-color="#808080" stop-opacity="0.1"/>
</linearGradient>
<clipPath id="clip0">
<rect width="698" height="569" fill="white" transform="translate(4)"/>
</clipPath>
</defs>
</svg>
